<?xml version="1.0" encoding="UTF-8" standalone="no"?>
<!-- Created with Inkscape (http://www.inkscape.org/) -->

<svg
   width="163.17747"
   height="34.527031"
   viewBox="0 0 163.17747 34.527031"
   version="1.1"
   id="svg5"
   xml:space="preserve"
   xmlns:inkscape="http://www.inkscape.org/namespaces/inkscape"
   xmlns:sodipodi="http://sodipodi.sourceforge.net/DTD/sodipodi-0.dtd"
   xmlns="http://www.w3.org/2000/svg"
   xmlns:svg="http://www.w3.org/2000/svg"><sodipodi:namedview
     id="namedview7"
     pagecolor="#ffffff"
     bordercolor="#000000"
     borderopacity="0.25"
     inkscape:showpageshadow="2"
     inkscape:pageopacity="0.0"
     inkscape:pagecheckerboard="0"
     inkscape:deskcolor="#d1d1d1"
     inkscape:document-units="px"
     showgrid="false" /><defs
     id="defs2" /><g
     inkscape:label="Capa 1"
     inkscape:groupmode="layer"
     id="layer1"
     transform="translate(-10.032068,-66.903801)"><g
       id="g302"
       transform="translate(-0.16336479,49.306373)"><path
         style="fill:#ad8b5b;fill-opacity:1;stroke-width:0.147431"
         d="m 13.416912,41.847304 c 0.18339,-0.03526 0.448765,-0.03393 0.589722,0.003 0.140957,0.0369 -0.0091,0.06575 -0.333438,0.06412 -0.324347,-0.0016 -0.439675,-0.03183 -0.256284,-0.06709 z m 1.039509,0.0036 c 0.106426,-0.04259 0.233585,-0.03735 0.282576,0.01163 0.04899,0.04899 -0.03809,0.08384 -0.193503,0.07743 -0.171749,-0.0071 -0.206683,-0.04201 -0.08907,-0.08907 z m 1.032014,0 c 0.106426,-0.04259 0.233584,-0.03735 0.282576,0.01163 0.04899,0.04899 -0.03809,0.08384 -0.193503,0.07743 -0.171749,-0.0071 -0.206683,-0.04201 -0.08907,-0.08907 z m 27.716946,0 c 0.106426,-0.04259 0.233586,-0.03735 0.282576,0.01163 0.04899,0.04899 -0.03809,0.08384 -0.193503,0.07743 -0.171749,-0.0071 -0.206683,-0.04201 -0.08907,-0.08907 z m 2.791967,-0.0033 c 0.182445,-0.03514 0.480992,-0.03514 0.663437,0 0.182445,0.03514 0.03317,0.06389 -0.331719,0.06389 -0.36489,0 -0.514164,-0.02875 -0.331718,-0.06389 z m 13.425395,0.0033 c 0.106426,-0.04259 0.233586,-0.03735 0.282576,0.01163 0.04899,0.04899 -0.03809,0.08384 -0.193502,0.07743 -0.17175,-0.0071 -0.206683,-0.04201 -0.08907,-0.08907 z m 16.800511,-0.0061 c 0.264984,-0.03281 0.663047,-0.03214 0.884583,0.0015 0.221537,0.03364 0.0047,0.06049 -0.481789,0.05966 -0.486521,-8.85e-4 -0.667778,-0.02835 -0.402794,-0.06116 z m 13.855833,0.0028 c 0.182445,-0.03514 0.480992,-0.03514 0.663437,0 0.182446,0.03514 0.03317,0.06389 -0.331719,0.06389 -0.36489,0 -0.514164,-0.02875 -0.331718,-0.06389 z m 4.422917,-0.0056 c 0.668966,-0.02732 1.763638,-0.02732 2.432604,0 0.668966,0.02732 0.12163,0.04967 -1.216302,0.04967 -1.337933,0 -1.885269,-0.02235 -1.216302,-0.04967 z m 9.665286,-5.9e-4 c 1.03858,-0.02538 2.69717,-0.02531 3.68576,1.48e-4 0.9886,0.02547 0.13885,0.04623 -1.88832,0.04614 -2.02717,-9e-5 -2.83602,-0.02093 -1.79744,-0.04631 z m 12.00701,10e-4 c 0.50679,-0.02879 1.33609,-0.02879 1.84288,0 0.50679,0.02879 0.0921,0.05234 -0.92144,0.05234 -1.01359,0 -1.42824,-0.02355 -0.92144,-0.05234 z m 5.45493,0.0051 c 0.18244,-0.03514 0.48099,-0.03514 0.66344,0 0.18244,0.03514 0.0332,0.06389 -0.33172,0.06389 -0.36489,0 -0.51417,-0.02875 -0.33172,-0.06389 z m 4.93022,-0.006 c 1.02907,-0.02531 2.75401,-0.02538 3.83319,-1.48e-4 1.07919,0.02522 0.23722,0.04593 -1.87103,0.04601 -2.10826,8.4e-5 -2.99123,-0.02055 -1.96216,-0.04586 z m 12.24544,0.0027 c 0.30407,-0.03181 0.80165,-0.03181 1.10573,0 0.30407,0.03181 0.0553,0.05783 -0.55287,0.05783 -0.60815,0 -0.85694,-0.02602 -0.55286,-0.05783 z m 3.3264,0.0067 c 0.10643,-0.04259 0.23359,-0.03735 0.28258,0.01163 0.049,0.04899 -0.0381,0.08383 -0.1935,0.07743 -0.17176,-0.0071 -0.20668,-0.04201 -0.0891,-0.08907 z m 1.17023,-0.008 c 0.42571,-0.02978 1.12232,-0.02978 1.54802,0 0.42571,0.02978 0.0774,0.05415 -0.77401,0.05415 -0.85141,0 -1.19971,-0.02437 -0.77401,-0.05415 z m 11.79445,-0.0018 c 2.53396,-0.02262 6.68044,-0.02262 9.21441,0 2.53396,0.02262 0.46072,0.04113 -4.60721,0.04113 -5.06792,0 -7.14117,-0.01851 -4.6072,-0.04113 z m -20.45599,-1.73233 c 0.19044,-0.202717 0.37943,-0.368576 0.41997,-0.368576 0.0405,0 -0.0821,0.165859 -0.27254,0.368576 -0.19045,0.202717 -0.37944,0.368577 -0.41998,0.368577 -0.0405,0 0.0821,-0.16586 0.27255,-0.368577 z m 15.63927,-0.01228 c 0.007,-0.171749 0.042,-0.206682 0.0891,-0.08907 0.0426,0.106426 0.0374,0.233586 -0.0116,0.282576 -0.049,0.04899 -0.0839,-0.03809 -0.0774,-0.193503 z m -12.21417,-0.503726 c 0,-0.283803 0.0303,-0.399905 0.0674,-0.258003 0.0371,0.141902 0.0371,0.374105 0,0.516007 -0.0371,0.141902 -0.0674,0.0258 -0.0674,-0.258004 z M 98.556344,39.78195 c 0.222989,-0.03378 0.58788,-0.03378 0.810868,0 0.222989,0.03378 0.04054,0.06142 -0.405434,0.06142 -0.445977,0 -0.628423,-0.02764 -0.405434,-0.06142 z M 10.275382,38.90364 c 0.164196,-1.461439 0.861619,-10.693024 1.418161,-18.771789 0.081,-1.175759 0.174236,-2.216088 0.207197,-2.311843 0.0453,-0.131602 2.380671,-0.171033 9.567255,-0.161537 l 9.507322,0.01256 -0.08461,1.009262 c -0.06722,0.801747 -0.04232,1.012291 0.121058,1.023992 0.113119,0.0081 0.570562,0.02469 1.016539,0.03686 l 0.810869,0.02213 -0.02466,1.621736 c -0.01356,0.891955 -0.107378,2.965198 -0.208476,4.607206 l -0.183813,2.985469 h -0.991092 -0.991093 l -0.09342,0.479149 c -0.05138,0.263532 -0.0895,0.752017 -0.0847,1.08552 l 0.0087,0.606371 -5.829254,-0.0747 c -5.421043,-0.06947 -5.82925,-0.05712 -5.82925,0.176343 0,0.138071 -0.04976,0.220156 -0.110573,0.18241 -0.06081,-0.03775 -0.112874,0.173955 -0.115687,0.470448 -0.01981,2.088506 -0.08442,2.979311 -0.210426,2.901433 -0.08862,-0.05477 -0.11688,0.412056 -0.07533,1.244459 0.03807,0.762725 0.0084,1.332112 -0.06943,1.332112 -0.07476,0 -0.123794,0.480992 -0.108961,1.068871 l 0.02697,1.068872 -3.876621,0.04811 -3.876624,0.04811 z m 3.655818,0.434965 c -0.263533,-0.0327 -0.694767,-0.0327 -0.958299,0 -0.263532,0.0327 -0.04791,0.05946 0.479149,0.05946 0.527065,0 0.742682,-0.02676 0.47915,-0.05946 z m -1.403662,-0.424714 c -0.04899,-0.04899 -0.17615,-0.05423 -0.282576,-0.01163 -0.117609,0.04706 -0.08268,0.082 0.08907,0.08907 0.155415,0.0064 0.242492,-0.02844 0.193502,-0.07743 z m 0.96137,-0.0086 c -0.101359,-0.0409 -0.267218,-0.0409 -0.368577,0 -0.101358,0.0409 -0.01843,0.07436 0.184289,0.07436 0.202717,0 0.285646,-0.03346 0.184288,-0.07436 z m 4.754636,-7.716181 c 0.05011,-0.08109 0.02086,-0.147431 -0.06501,-0.147431 -0.08587,0 -0.156132,0.06634 -0.156132,0.147431 0,0.08109 0.02926,0.14743 0.06501,0.14743 0.03576,0 0.106017,-0.06634 0.156132,-0.14743 z m 6.772599,-5.860365 c 0.05061,-0.790597 0.129317,-1.879634 0.174895,-2.420082 0.0721,-0.854887 0.04754,-1.001231 -0.188841,-1.125672 -0.359623,-0.189317 -5.593051,-0.149249 -5.783039,0.04428 -0.160527,0.163514 -0.508376,4.59331 -0.37734,4.805332 0.04541,0.07348 1.432505,0.133593 3.082431,0.133593 h 2.999867 z M 23.811075,21.79519 c 0.224103,-0.03389 0.555822,-0.03298 0.737152,0.002 0.181331,0.03499 -0.002,0.06272 -0.407461,0.06161 -0.405434,-0.0012 -0.553795,-0.02974 -0.329691,-0.06363 z m 17.406948,16.215118 c 0.0519,-0.873076 0.138131,-2.229339 0.191619,-3.013916 l 0.09725,-1.426501 -0.500665,-0.06107 -0.500667,-0.06107 0.479149,-0.02359 0.47915,-0.0236 v -1.105729 -1.105729 l -1.658594,-0.02722 c -2.125188,-0.03487 -2.222907,-0.04155 -2.42371,-0.165654 -0.0924,-0.05711 -0.194166,-0.02532 -0.22615,0.07062 -0.03198,0.09595 -0.137343,0.125508 -0.234136,0.06569 -0.124179,-0.07675 -0.132467,-0.19008 -0.02816,-0.384987 0.08131,-0.151922 0.147829,-0.612302 0.147829,-1.023067 V 28.97764 h -1.054483 -1.054484 l 0.105987,-1.87974 c 0.05829,-1.033857 0.134779,-2.742208 0.169971,-3.796337 0.03519,-1.054128 0.09496,-2.181972 0.132822,-2.50632 0.123576,-1.058668 0.218651,-2.202148 0.222303,-2.673629 l 0.0036,-0.46217 3.773748,0.0016 3.773747,0.0016 -0.104126,2.819439 c -0.05727,1.550691 -0.147398,3.530297 -0.200286,4.399126 -0.05289,0.868829 -0.07397,1.646269 -0.04684,1.727645 0.0305,0.0915 1.049463,0.14863 2.670444,0.149724 l 2.621122,0.0018 0.09346,-1.876845 c 0.05141,-1.032263 0.137828,-3.090787 0.192053,-4.574498 l 0.09859,-2.697656 3.727796,0.04391 3.727797,0.04391 -0.07471,2.801181 c -0.04109,1.540649 -0.09893,3.000212 -0.128524,3.243472 -0.0296,0.243261 -0.05829,1.517347 -0.06376,2.831303 l -0.01,2.389009 -0.995156,0.04359 -0.995157,0.04359 -0.03782,0.589723 c -0.0208,0.324347 -0.07414,0.808419 -0.118537,1.075714 l -0.08072,0.485993 -2.092921,-0.02271 -2.092922,-0.02271 -0.108227,1.527027 c -0.05953,0.839864 -0.159041,2.721214 -0.221146,4.180777 l -0.112918,2.65375 -3.819008,0.03939 -3.819007,0.03939 z m 0.970702,0.898937 c 0.03379,-0.02956 -0.07522,-0.05374 -0.24223,-0.05374 -0.167014,0 -0.342437,0.10105 -0.389831,0.224557 -0.07243,0.188738 -0.03379,0.197311 0.242231,0.05374 0.18062,-0.09394 0.356043,-0.194996 0.38983,-0.224557 z m 0.454577,0.09369 c 0,-0.08109 -0.07026,-0.14743 -0.156132,-0.14743 -0.08587,0 -0.115128,0.06634 -0.06501,0.14743 0.05011,0.08109 0.120374,0.147431 0.156132,0.147431 0.03576,0 0.06501,-0.06634 0.06501,-0.147431 z m 0.844655,0.05836 c -0.04899,-0.04899 -0.17615,-0.05423 -0.282576,-0.01163 -0.11761,0.04706 -0.08268,0.082 0.08907,0.08907 0.155416,0.0064 0.242493,-0.02844 0.193503,-0.07743 z m 14.606049,-1.680774 0.04421,-2.204035 2.58785,-0.04023 2.587851,-0.04023 0.03427,-0.958299 c 0.01885,-0.527064 0.08381,-2.683236 0.144361,-4.791493 0.06055,-2.108258 0.167027,-4.014174 0.236617,-4.235371 0.07281,-0.231434 0.07043,-0.436846 -0.0056,-0.483841 -0.07268,-0.04492 -0.0853,-0.207106 -0.02805,-0.36042 0.05725,-0.153315 0.08206,-0.748297 0.05513,-1.322184 l -0.04895,-1.043428 -0.983058,-0.0073 c -1.249819,-0.0093 -3.240825,-0.130375 -3.677918,-0.223613 -0.331719,-0.07076 -0.335451,-0.09634 -0.294861,-2.021245 l 0.04111,-1.949572 8.825197,-0.03802 c 8.01511,-0.03453 8.816942,-0.01651 8.735261,0.196346 -0.04946,0.128903 -0.08994,1.091412 -0.08994,2.13891 v 1.904539 l -1.142587,-0.0023 c -0.830081,-0.0016 -1.082102,-0.04385 -0.921441,-0.154313 0.158873,-0.109237 -0.0072,-0.130314 -0.589722,-0.07485 -1.854299,0.176549 -2.382282,0.270067 -2.43127,0.430638 -0.132795,0.435263 -0.289806,9.293547 -0.22708,12.811532 0.0042,0.235622 0.226377,0.258004 2.56108,0.258004 h 2.556481 l 0.0201,2.213511 0.0201,2.21351 -9.02667,-0.0061 -9.026673,-0.0061 0.04421,-2.204035 z m 2.351537,1.96308 c -0.141902,-0.03708 -0.374105,-0.03708 -0.516007,0 -0.141902,0.03708 -0.0258,0.06742 0.258003,0.06742 0.283804,0 0.399906,-0.03034 0.258004,-0.06742 z m 17.875956,-1.965797 v -2.208062 l 6.450087,-0.01701 c 3.547548,-0.0093 6.549603,-0.02594 6.671233,-0.03686 0.262524,-0.02356 0.413105,-1.652447 0.294861,-3.189608 l -0.07371,-0.958299 -5.676077,-0.07371 -5.676076,-0.07372 -0.04359,-0.995156 -0.04359,-0.995156 -0.914705,-4.43e-4 -0.914705,-4.42e-4 0.0041,-2.10046 c 0.0022,-1.155254 0.01881,-3.178547 0.03686,-4.496207 l 0.0328,-2.395713 h 0.958298 0.958299 V 18.7661 17.695211 l 9.435556,-0.04889 9.435556,-0.04889 v 2.167568 c 0,2.011778 -0.01854,2.158944 -0.258003,2.047571 -0.353431,-0.164381 -4.289728,-0.25025 -4.048541,-0.08832 0.127467,0.08558 0.04247,0.127625 -0.258003,0.127625 -0.24645,0 -0.448092,-0.05762 -0.448092,-0.128047 0,-0.07076 -0.115428,-0.06879 -0.258003,0.0044 -0.413836,0.212463 -5.240121,0.214507 -5.108885,0.0022 0.07503,-0.121402 0.02547,-0.142781 -0.16317,-0.07039 -0.149011,0.05718 -0.773163,0.137707 -1.387005,0.178943 -0.613841,0.04124 -1.168603,0.127505 -1.232804,0.191707 -0.128086,0.128086 -0.162699,4.285963 -0.03673,4.411933 0.137553,0.137555 0.644984,0.151404 6.005534,0.163915 l 5.264184,0.01228 0.04332,1.068872 0.04332,1.068871 0.899017,0.04331 0.899015,0.04331 0.09554,1.873287 c 0.05255,1.030308 0.09581,2.957076 0.09614,4.281711 l 5.9e-4,2.408424 -0.552865,-0.03328 c -1.399301,-0.08424 -1.363732,-0.110965 -1.363732,1.024458 v 1.016529 l -0.62658,0.06694 c -0.344619,0.03682 -4.656963,0.07543 -9.582987,0.0858 l -8.956407,0.01886 v -2.208062 z m 18.388892,1.388629 c -0.04899,-0.04899 -0.17615,-0.05423 -0.282576,-0.01163 -0.117609,0.04706 -0.08268,0.082 0.08907,0.08907 0.155416,0.0064 0.242493,-0.02844 0.193503,-0.07743 z M 102.942,35.065347 c -1.5e-4,-2.496801 -0.044,-6.776752 -0.0973,-9.511 -0.0893,-4.579792 -0.0773,-4.978869 0.1516,-5.066714 0.20118,-0.0772 0.21401,-0.136901 0.0674,-0.313577 -0.15765,-0.189963 -0.19498,-0.18296 -0.28826,0.05407 -0.0928,0.235894 -0.10854,0.226489 -0.11751,-0.07035 -0.01,-0.315167 0.0458,-0.340721 0.68993,-0.318618 1.46471,0.05026 1.36373,0.130858 1.36373,-1.088476 v -1.086306 l 8.55097,-0.02813 8.55098,-0.02813 v 1.114433 1.114432 h 1.0405 1.04049 l -0.0262,0.847725 c -0.025,0.808703 0.0853,5.113527 0.24447,9.54613 0.0408,1.135215 0.0701,3.179659 0.0652,4.543207 -0.006,1.778886 0.0373,2.45065 0.15451,2.378182 0.1164,-0.07194 0.13998,0.190352 0.082,0.911724 -0.0448,0.556997 -0.0844,1.128823 -0.0881,1.270725 -0.006,0.239321 -0.28152,0.256765 -3.80296,0.240901 -2.08799,-0.0094 -3.67547,-0.04836 -3.52773,-0.08657 0.2481,-0.06416 0.24986,-0.08317 0.0231,-0.248991 -0.21371,-0.156269 -0.25359,-0.627301 -0.30785,-3.636056 -0.0343,-1.90109 -0.0613,-3.705318 -0.0599,-4.009393 l 0.002,-0.552865 h -3.02233 -3.02233 v 1.101569 1.101569 l 2.02717,0.04554 2.02717,0.04554 -2.02717,0.03234 -2.02717,0.03234 v 3.08251 3.082511 l -3.83319,0.01968 -3.8332,0.01968 -4.4e-4,-4.539643 z m 0.4427,4.314895 c 0,-0.03576 -0.0663,-0.106017 -0.14744,-0.156132 -0.0811,-0.05012 -0.14743,-0.02086 -0.14743,0.06501 0,0.08587 0.0663,0.156132 0.14743,0.156132 0.0811,0 0.14744,-0.02926 0.14744,-0.06501 z m 20.08741,-0.03263 c -0.10136,-0.0409 -0.26722,-0.0409 -0.36858,0 -0.10136,0.0409 -0.0184,0.07436 0.18429,0.07436 0.20272,0 0.28565,-0.03346 0.18429,-0.07436 z m -7.02838,-12.894753 c 0.052,-0.0841 0.0466,-1.142671 -0.012,-2.352377 l -0.10652,-2.199468 h -3.00461 -3.00461 l 0.007,2.146789 c 0.004,1.180733 0.0436,2.242111 0.0884,2.358615 0.067,0.174607 0.5958,0.21073 3.00955,0.205588 1.8564,-0.004 2.96286,-0.06221 3.02277,-0.159147 z m 0.24222,-3.556689 c -0.14046,-0.291251 -0.15998,-0.250782 -0.15998,0.331719 0,0.582501 0.0195,0.622969 0.15998,0.331719 0.11503,-0.238496 0.11503,-0.424942 0,-0.663438 z m -13.04632,-2.853396 c -0.049,-0.04899 -0.17615,-0.05423 -0.28258,-0.01163 -0.11761,0.04706 -0.0827,0.082 0.0891,0.08907 0.15541,0.0064 0.24249,-0.02844 0.1935,-0.07743 z m 20.83928,19.316477 c 0.007,-0.171749 0.042,-0.206683 0.0891,-0.08907 0.0426,0.106426 0.0373,0.233586 -0.0116,0.282576 -0.049,0.04899 -0.0838,-0.03809 -0.0774,-0.193503 z m 2.878,-0.83544 c -0.0463,-0.58788 -0.15267,-3.390903 -0.23645,-6.228942 -0.19198,-6.503205 -0.26047,-8.170937 -0.3529,-8.592625 -0.0406,-0.185082 -0.0849,-1.144738 -0.0985,-2.132569 l -0.0248,-1.796055 0.93274,-0.0052 0.93275,-0.0052 -0.0425,-0.708054 c -0.0258,-0.42882 0.0347,-0.803368 0.15336,-0.949742 0.13765,-0.169825 0.1416,-0.209077 0.0133,-0.132014 -0.12318,0.07399 -0.15462,0.03676 -0.0966,-0.114376 0.0757,-0.19738 1.09782,-0.220229 8.58614,-0.191946 l 8.50017,0.0321 0.0433,1.068872 c 0.048,1.184543 -0.0557,1.098582 1.31536,1.090624 0.75213,-0.0044 0.77056,0.0058 0.84265,0.466041 0.0405,0.258779 0.10776,1.233459 0.14939,2.165957 0.21247,4.760311 0.40221,8.340066 0.51577,9.730418 0.0695,0.851411 0.10036,2.128529 0.0685,2.838038 -0.0368,0.820078 -0.003,1.290018 0.0931,1.290018 0.0952,0 0.14363,0.599264 0.131,1.619881 l -0.0201,1.619881 -3.79576,-0.01752 -3.79575,-0.01752 -0.0988,-2.45009 c -0.0543,-1.347549 -0.14081,-3.295973 -0.1922,-4.32983 l -0.0935,-1.879739 h -2.91385 c -1.60262,0 -3.01879,0.04027 -3.14705,0.08949 -0.17562,0.06739 -0.23321,0.300978 -0.23321,0.946013 0,0.471088 0.0672,0.878913 0.14927,0.906279 0.0835,0.02782 0.18056,0.796918 0.22025,1.744595 0.039,0.932162 0.10948,2.397821 0.15655,3.257021 l 0.0856,1.562182 -1.22726,0.09553 c -0.67499,0.05254 -2.3992,0.09593 -3.83157,0.09641 l -2.60432,8.85e-4 -0.0841,-1.068872 z m 2.30728,0.823801 c -0.10136,-0.0409 -0.26721,-0.0409 -0.36857,0 -0.10136,0.0409 -0.0184,0.07436 0.18429,0.07436 0.20271,0 0.28564,-0.03346 0.18428,-0.07436 z m 1.8396,-0.01 c -0.30589,-0.03191 -0.77029,-0.03138 -1.03202,0.0012 -0.26172,0.03257 -0.0114,0.05868 0.55616,0.05803 0.5676,-5.9e-4 0.78174,-0.0273 0.47586,-0.05922 z m 5.81202,-13.124299 0.0221,-0.405434 0.0614,0.405434 0.0614,0.405434 h 1.54264 1.54265 l -0.0413,-2.053816 c -0.0227,-1.129598 -0.0864,-1.942309 -0.14148,-1.806024 -0.0641,0.158581 -0.10393,0.05698 -0.11057,-0.282212 l -0.0103,-0.530004 -2.39575,-0.08889 c -1.31766,-0.04889 -2.66112,-0.04081 -2.98546,0.01795 l -0.58973,0.106838 0.0392,1.24921 c 0.0216,0.687067 0.077,1.730203 0.12315,2.318082 l 0.0839,1.068872 h 1.38801 1.38801 l 0.0221,-0.405434 z m -3.16485,-3.160543 c -0.0471,-0.11761 -0.082,-0.08268 -0.0891,0.08907 -0.006,0.155416 0.0284,0.242492 0.0774,0.193503 0.049,-0.04899 0.0542,-0.17615 0.0116,-0.282576 z m 19.43641,16.272256 c -0.042,-0.109338 -0.0763,-0.591433 -0.0763,-1.071322 v -0.872525 h -0.95549 c -0.87217,0 -0.96151,-0.02893 -1.02442,-0.331719 -0.0566,-0.272329 -0.34476,-4.88715 -0.37056,-5.934081 -0.004,-0.162173 -0.0716,-0.958298 -0.15015,-1.769166 -0.0786,-0.810869 -0.21778,-2.801181 -0.30934,-4.422918 -0.0916,-1.621736 -0.20004,-3.455088 -0.2411,-4.074115 l -0.0746,-1.125503 0.60282,0.110234 c 0.33155,0.06063 0.76947,0.07838 0.97313,0.03945 0.35588,-0.06803 0.37031,-0.11348 0.37031,-1.166053 V 17.61209 l 8.69841,0.02288 8.6984,0.02288 0.002,0.536706 c 0.001,0.295189 0.0427,0.785495 0.093,1.089571 l 0.0914,0.552865 h 0.92181 c 1.05583,0 1.09805,0.05543 1.10162,1.446065 0.001,0.430444 0.0655,1.226569 0.14315,1.769167 0.0776,0.542596 0.16148,1.493429 0.18634,2.112962 l 0.0452,1.126421 -3.86782,-0.02069 -3.86781,-0.02069 -0.072,-0.368577 c -0.0396,-0.202717 -0.11675,-1.186766 -0.17139,-2.186776 -0.0616,-1.127395 -0.16189,-1.838053 -0.26396,-1.870456 -0.0905,-0.02874 -1.35881,-0.08478 -2.81837,-0.124536 -1.90745,-0.05195 -2.7179,-0.02347 -2.88182,0.101289 -0.25556,0.194472 -0.39672,1.363932 -0.14593,1.208938 0.0885,-0.05473 0.15346,0.04873 0.15429,0.245947 0.002,0.602146 0.28001,5.286564 0.44373,7.490803 0.0873,1.175759 0.1772,2.618242 0.19971,3.205518 0.0225,0.587275 0.0913,1.118025 0.15277,1.179445 0.0615,0.06142 0.68673,0.113552 1.3894,0.115852 0.70267,0.0023 1.64247,0.04955 2.08844,0.104988 0.52589,0.06538 0.65543,0.05709 0.36858,-0.0236 -0.32843,-0.09238 -0.0884,-0.128894 0.93251,-0.141847 l 1.37479,-0.01744 -0.0896,-1.363733 c -0.0493,-0.750053 -0.1254,-1.712037 -0.16911,-2.137743 l -0.0795,-0.77401 h 3.90577 3.90579 l 0.0946,0.995156 c 0.052,0.547336 0.1211,1.194188 0.15353,1.437448 0.0325,0.24326 0.0987,1.105729 0.14718,1.916597 0.0485,0.810869 0.11865,1.62358 0.15586,1.806025 0.0647,0.317268 0.0254,0.331719 -0.90304,0.331719 h -0.97069 l 0.0264,0.921441 c 0.0146,0.506792 0.0188,1.004589 0.01,1.106214 -0.0258,0.282917 -17.81827,0.199736 -17.92707,-0.08381 z m 0.66445,-0.174683 c 0.15063,0 0.31058,-0.05939 0.35544,-0.131983 0.13599,-0.220031 -0.37951,-0.328228 -0.6357,-0.133425 -0.13163,0.100085 -0.26256,0.196331 -0.29094,0.213881 -0.0284,0.01755 0,0.115985 0.0638,0.218744 0.0875,0.141566 0.12978,0.143942 0.17448,0.0098 0.0325,-0.09736 0.18225,-0.177027 0.33288,-0.177027 z m -54.488077,-3.90691 c 7.4e-5,-2.270431 0.02054,-3.178643 0.04548,-2.018251 0.02494,1.160393 0.02488,3.018019 -1.35e-4,4.128056 -0.02501,1.110038 -0.04542,0.160625 -0.04534,-2.109805 z m -48.705259,3.526048 c 0.0071,-0.171749 0.04201,-0.206683 0.08907,-0.08907 0.04259,0.106425 0.03735,0.233586 -0.01163,0.282576 -0.04899,0.04899 -0.08383,-0.03809 -0.07743,-0.193503 z M 114.6266,37.160082 c 0.002,-0.324347 0.0318,-0.439675 0.0671,-0.256284 0.0353,0.18339 0.0339,0.448765 -0.003,0.589722 -0.0369,0.140957 -0.0657,-0.0091 -0.0641,-0.333438 z m 23.26849,-1.19173 c 0.007,-0.171749 0.042,-0.206683 0.0891,-0.08907 0.0426,0.106426 0.0374,0.233586 -0.0116,0.282576 -0.049,0.04899 -0.0838,-0.03809 -0.0774,-0.193503 z m -13.56361,-0.147431 c 0.007,-0.171749 0.042,-0.206682 0.0891,-0.08907 0.0426,0.106426 0.0373,0.233586 -0.0116,0.282576 -0.049,0.04899 -0.0838,-0.03809 -0.0774,-0.193503 z m -22.95566,-2.199173 c 2.9e-4,-0.891955 0.0246,-1.237837 0.054,-0.768628 0.0293,0.46921 0.0291,1.198991 -5.9e-4,1.621737 -0.0297,0.422745 -0.0537,0.03885 -0.0534,-0.853109 z M 24.325054,33.437674 c 1.479835,-0.02405 3.901382,-0.02405 5.381216,0 1.479834,0.02405 0.269061,0.04372 -2.690608,0.04372 -2.959668,0 -4.170442,-0.01967 -2.690608,-0.04372 z m 27.276374,0.0061 c 0.18339,-0.03526 0.448765,-0.03393 0.589722,0.003 0.140957,0.0369 -0.0091,0.06575 -0.333437,0.06412 -0.324348,-0.0016 -0.439675,-0.03183 -0.256285,-0.06709 z m 33.62137,-0.15345 c 1.160393,-0.02494 3.018018,-0.02488 4.128055,1.35e-4 1.110039,0.02501 0.160626,0.04542 -2.109805,0.04534 -2.27043,-7.4e-5 -3.178643,-0.02054 -2.01825,-0.04548 z m 49.459342,-1.437732 c 0.001,-0.405434 0.0297,-0.553795 0.0636,-0.329691 0.0339,0.224103 0.033,0.555822 -0.002,0.737153 -0.035,0.18133 -0.0627,-0.002 -0.0616,-0.407462 z M 72.461455,30.230845 c 0.0016,-0.324347 0.03183,-0.439675 0.06709,-0.256284 0.03526,0.18339 0.03392,0.448765 -0.003,0.589722 -0.0369,0.140957 -0.06575,-0.0091 -0.06412,-0.333438 z M 35.295052,29.862269 c 0,-0.202717 0.03346,-0.285647 0.07436,-0.184289 0.0409,0.101359 0.0409,0.267218 0,0.368577 -0.0409,0.101358 -0.07436,0.01843 -0.07436,-0.184288 z M 167.03784,28.868993 c 0.42571,-0.02978 1.12232,-0.02978 1.54802,0 0.42571,0.02978 0.0774,0.05415 -0.77401,0.05415 -0.85141,0 -1.19971,-0.02437 -0.77401,-0.05415 z M 57.715424,27.798241 c 0,-0.283804 0.03034,-0.399906 0.06742,-0.258004 0.03708,0.141902 0.03708,0.374105 0,0.516007 -0.03708,0.141902 -0.06742,0.0258 -0.06742,-0.258003 z M 160.90589,24.849629 c 0,-0.202717 0.0335,-0.285647 0.0744,-0.184288 0.0409,0.101358 0.0409,0.267218 0,0.368576 -0.0409,0.101359 -0.0744,0.01843 -0.0744,-0.184288 z m -83.273166,-1.25316 c 5.9e-4,-0.567607 0.0273,-0.781744 0.05922,-0.475861 0.03191,0.305884 0.03138,0.77029 -0.0012,1.032014 -0.03257,0.261724 -0.05868,0.01145 -0.05803,-0.556153 z M 45.32033,23.817615 c 0,-0.202717 0.03346,-0.285647 0.07436,-0.184288 0.0409,0.101358 0.0409,0.267218 0,0.368576 -0.0409,0.101359 -0.07436,0.01843 -0.07436,-0.184288 z m 79.77086,-2.064028 c 0,-0.283804 0.0303,-0.399905 0.0674,-0.258003 0.0371,0.141902 0.0371,0.374105 0,0.516007 -0.0371,0.141902 -0.0674,0.0258 -0.0674,-0.258004 z m -23.02173,-0.970584 c 0.007,-0.171749 0.042,-0.206683 0.0891,-0.08907 0.0426,0.106426 0.0374,0.233586 -0.0116,0.282576 -0.049,0.04899 -0.0838,-0.03809 -0.0774,-0.193503 z"
         id="path312"
         sodipodi:nodetypes="cccccsssssssssssssssssssssssssscssssssssssssssssssssssssssssssssssssssssssssssssscssccsssssssssssscssscsscccsccsssssssscccssssssssssssssssssssssssscscsccccscccccccsssssscccsssccccsssccsscccssccccsscccssccccsssssssssssssssccccsssssscssscsssccssssscccccccsssscccssccccccccscccccccsssssssssssscccccsscsscsscccssssscsssccsscccccccsccsccssssccccccccccccccccsssssssssssccccccssssssssssscsccccsccccccsscscsccccsscccccccsssscscsscccsssssscssccccccssccssccscccccccscccscsssccccsssccccccsccscccsssssscssssssscsscccccssscccccssssccsssssssssssscssccsscccscccscssssssscccccssssscssccssccssssssssssssssssssssssssssssscsscc" /><path
         style="fill:#342919;fill-opacity:1;stroke-width:0.147431"
         d="M 61.661845,48.954528 V 45.78477 h 1.242604 1.242605 l -0.05048,2.580036 -0.05048,2.580035 h 2.419927 2.419927 v 0.589722 0.589722 H 65.273899 61.66185 Z m 8.108681,0.308663 c 0,-2.788509 0.0075,-2.859137 0.294861,-2.783986 0.239382,0.0626 0.294862,0.0045 0.294862,-0.308663 V 45.78477 h 2.80118 c 2.744647,0 2.801181,0.0062 2.801181,0.308664 0,0.184675 0.118446,0.339637 0.294861,0.385771 0.28173,0.07367 0.294861,0.201099 0.294861,2.861094 v 2.783986 h -1.179444 -1.179445 v -1.244127 -1.244125 l -0.661549,-0.09921 c -0.363852,-0.05456 -0.828259,-0.05736 -1.032014,-0.0062 -0.359235,0.09016 -0.370465,0.130877 -0.370465,1.343329 v 1.250351 h -1.179444 -1.179445 z m 4.447482,-1.506845 c 0.07989,-1.004515 -0.0813,-1.143582 -1.177969,-1.016299 l -0.910624,0.105688 v 0.796394 0.796392 h 1.017169 1.017168 z m 3.80863,3.999363 c 0,-0.270289 -0.07863,-0.368577 -0.294861,-0.368577 -0.263473,0 -0.294798,-0.09809 -0.294263,-0.921441 2.95e-4,-0.506792 0.04374,-1.767324 0.09647,-2.801181 l 0.09587,-1.87974 h 1.079497 1.079496 l 0.04034,2.543178 0.04034,2.543177 0.995156,0.04359 0.995157,0.04359 V 48.371542 45.78477 h 1.156588 1.156588 l 0.09657,2.013623 c 0.159514,3.326059 0.145001,3.588739 -0.19829,3.588739 -0.216232,0 -0.294861,0.09829 -0.294861,0.368577 v 0.368576 h -2.874896 -2.874896 z m 7.224098,-2.801181 V 45.78477 h 1.253159 c 0.689238,0 1.245304,0.04976 1.235702,0.110573 -0.04789,0.303299 0.04576,0.452161 0.331468,0.526875 0.209752,0.05485 0.284713,0.158459 0.225773,0.312056 -0.06525,0.170033 0.0066,0.229941 0.275712,0.229941 0.307934,0 0.36395,0.06965 0.36395,0.452546 0,0.384978 0.04953,0.445511 0.331719,0.405434 0.304926,-0.04331 0.335242,-0.134691 0.375346,-1.131408 0.04173,-1.037041 0.05779,-1.080499 0.368576,-0.99717 0.178722,0.04792 0.706426,0.08803 1.172675,0.08914 l 0.847726,0.002 v 3.169758 3.169757 h -1.179445 -1.179444 v -1.032014 c 0,-0.933726 -0.02808,-1.032014 -0.294862,-1.032014 -0.196573,0 -0.294861,-0.09829 -0.294861,-0.294861 0,-0.193032 -0.09829,-0.294861 -0.284607,-0.294861 -0.182902,0 -0.301442,-0.11854 -0.331719,-0.331719 -0.03451,-0.242983 -0.145707,-0.331719 -0.415688,-0.331719 H 87.68334 l -0.04169,1.658594 -0.04169,1.658594 h -1.174616 -1.174616 z m 8.403542,2.801181 c 0,-0.270289 -0.07863,-0.368577 -0.294861,-0.368577 -0.282772,0 -0.294861,-0.09829 -0.294861,-2.39714 0,-2.237472 0.01964,-2.409406 0.294861,-2.581285 0.162173,-0.101279 0.294861,-0.283096 0.294861,-0.404039 0,-0.187364 0.423814,-0.219898 2.864642,-0.219898 2.858494,0 2.864743,7.38e-4 2.911754,0.331719 0.03145,0.221457 0.13287,0.31732 0.305115,0.288398 0.214219,-0.03597 0.258003,0.07036 0.258003,0.62658 v 0.669901 h -1.25316 c -1.209358,0 -1.253159,-0.01185 -1.253159,-0.33909 0,-0.523162 -0.206086,-0.623297 -1.171575,-0.569256 l -0.892453,0.04995 v 2.050933 2.050934 h 1.032014 1.032014 v -0.442292 -0.442292 h 1.226812 1.226813 l 0.03294,0.72187 c 0.02806,0.614948 -0.0062,0.718674 -0.231584,0.700296 -0.170558,-0.01392 -0.281284,0.09626 -0.311706,0.310143 -0.04708,0.331004 -0.05335,0.331719 -2.911825,0.331719 h -2.864642 z m 7.224102,-2.789954 v -3.158532 l 1.17979,-0.04808 1.17979,-0.04809 -3e-4,1.363733 -2.9e-4,1.363733 h 1.03201 1.03202 v -1.332837 -1.332838 l 1.2056,0.04282 1.20561,0.04282 0.0419,3.132899 0.0419,3.1329 h -1.25795 -1.25795 l 0.0473,-1.301781 0.0473,-1.301781 -1.03201,0.01177 -1.03202,0.01176 -0.0426,1.290018 -0.0426,1.290017 h -1.17371 -1.1737 v -3.15853 z m 8.40354,2.789954 c 0,-0.270289 -0.0786,-0.368577 -0.29486,-0.368577 -0.2833,0 -0.29486,-0.09829 -0.29486,-2.506319 0,-2.408033 0.0115,-2.50632 0.29486,-2.50632 0.19657,0 0.29486,-0.09829 0.29486,-0.294861 0,-0.286125 0.0983,-0.294862 3.31719,-0.294862 h 3.31718 v 0.516008 0.516007 h -2.35889 -2.35888 v 0.737152 0.737153 l 0.62658,0.02417 c 0.34461,0.01328 0.77585,0.02271 0.95829,0.02093 0.28725,-0.0028 0.33172,0.07303 0.33172,0.565557 v 0.568793 h -0.9583 -0.95829 v 0.737153 0.737153 l 2.24831,0.01746 c 1.23658,0.0096 2.29808,0.0096 2.35889,0 0.0608,-0.0096 0.11057,0.247917 0.11057,0.572264 v 0.589722 h -3.31718 -3.31719 z m 7.59356,-1.585842 c 4.4e-4,-1.073871 0.0171,-2.499828 0.0369,-3.168794 l 0.036,-1.216303 h 3.09604 c 2.99775,0 3.09604,0.0094 3.09604,0.294862 0,0.196573 0.0983,0.294861 0.29486,0.294861 0.2621,0 0.29486,0.09829 0.29486,0.884583 0,0.786296 -0.0328,0.884584 -0.29486,0.884584 -0.21623,0 -0.29486,0.09829 -0.29486,0.368576 0,0.311242 -0.0688,0.368577 -0.44229,0.368577 -0.3238,0 -0.44169,0.06912 -0.44004,0.258003 0.004,0.414753 0.23931,0.67858 0.51252,0.573739 0.17369,-0.06665 0.27318,-0.0059 0.32693,0.199663 0.0428,0.163733 0.20107,0.29547 0.35494,0.29547 0.24345,0 0.27766,0.118068 0.27766,0.958298 v 0.958299 h -1.17174 -1.17174 l -0.0446,-0.77401 c -0.0388,-0.674304 -0.0873,-0.780079 -0.37628,-0.821122 -0.25489,-0.0362 -0.33172,-0.143884 -0.33172,-0.464921 0,-0.395359 -0.039,-0.420553 -0.72655,-0.468896 l -0.72655,-0.05109 0.0263,1.290108 0.0263,1.290107 -1.17944,-10e-4 -1.17945,-10e-4 8.9e-4,-1.952491 z m 4.34831,-2.60297 v -0.724194 l -0.55286,-0.07892 c -0.30408,-0.0434 -0.71873,-0.05476 -0.92144,-0.02524 -0.20272,0.02952 -0.41834,0.0592 -0.47915,0.06596 -0.0608,0.0068 -0.11057,0.344004 -0.11057,0.749438 v 0.737153 h 1.03201 1.03201 z M 12.557931,41.324996 C 12.275638,41.061464 11.87475,40.757591 11.667067,40.649722 11.459385,40.541855 11.096021,40.295451 10.859593,40.102161 l -0.429869,-0.351439 3.793528,-0.0053 3.793529,-0.0053 0.07194,-0.331719 c 0.03957,-0.182445 0.14133,-1.559078 0.226134,-3.059184 0.0848,-1.500107 0.194879,-3.240877 0.244615,-3.868378 l 0.09043,-1.140912 5.839486,-0.03853 c 5.059585,-0.03337 5.843462,-0.06806 5.869258,-0.259668 0.01638,-0.12163 0.07161,-0.601095 0.122746,-1.065476 0.05114,-0.464383 0.138147,-0.838003 0.193361,-0.830267 0.05521,0.0077 0.50188,0.0062 0.992591,-0.0034 l 0.892203,-0.01746 0.176436,-2.764323 c 0.09704,-1.520378 0.219825,-3.610207 0.272854,-4.644064 0.05303,-1.033856 0.121688,-1.879739 0.152577,-1.879739 0.05199,0 0.521451,0.42833 1.575516,1.437474 l 0.423454,0.405408 -0.09253,1.695451 c -0.05089,0.932499 -0.135135,2.607679 -0.187206,3.722622 l -0.09468,2.027171 h 1.053768 1.053769 v 0.833718 0.833719 L 36.569001,30.511711 C 36.390526,30.35724 36.08608,30.048412 35.892458,29.825423 35.698835,29.602434 35.47997,29.419989 35.406092,29.419989 c -0.07388,0 -0.134325,0.390325 -0.134325,0.867389 0,0.991146 -0.07104,1.043602 -1.418158,1.047196 l -0.754721,0.002 -0.09138,0.552865 c -0.05026,0.304075 -0.09211,0.767703 -0.09301,1.030283 l -0.0016,0.477424 -5.712935,0.03859 -5.712934,0.03859 -0.104154,1.548021 c -0.05729,0.851411 -0.180636,2.476833 -0.274113,3.612049 -0.09348,1.135215 -0.160021,2.312817 -0.147876,2.616892 l 0.02208,0.552865 H 17.027072 13.07119 Z m 30.195944,0.115065 c -0.141902,-0.195151 -0.258003,-0.397242 -0.258003,-0.44909 0,-0.05185 -0.281961,-0.352728 -0.62658,-0.668621 -0.431419,-0.395456 -0.54893,-0.575578 -0.377278,-0.578292 0.137116,-0.0022 0.290305,0.0624 0.34042,0.14349 0.05011,0.08109 0.170132,0.146414 0.266705,0.145173 0.105167,-0.0013 0.0869,-0.05893 -0.04556,-0.143575 -0.145443,-0.09294 0.990098,-0.155254 3.317188,-0.18203 l 3.538333,-0.04071 0.102733,-2.211459 c 0.0565,-1.216302 0.146229,-3.090513 0.199391,-4.164914 l 0.09666,-1.953455 h 2.105444 c 2.392397,0 2.281141,0.06639 2.285253,-1.363732 l 0.002,-0.700296 0.700295,-0.002 c 1.360023,-0.0039 1.364116,-0.0083 1.360886,-1.45263 -0.0055,-2.471924 0.352816,-9.880855 0.474273,-9.80579 0.06771,0.04185 0.08923,0.130891 0.04783,0.197878 -0.0414,0.06699 0.02386,0.159837 0.145024,0.206332 0.121165,0.0465 0.2203,0.186134 0.2203,0.31031 0,0.124175 0.0551,0.225773 0.122438,0.225773 0.06734,0 0.337491,0.299455 0.600331,0.665454 l 0.477894,0.665456 -0.151255,5.396986 c -0.08319,2.968343 -0.172246,5.417977 -0.197901,5.44363 -0.02565,0.02565 -0.466186,0.07918 -0.978959,0.118948 -0.512774,0.03977 -0.972847,0.112836 -1.022386,0.162374 -0.04954,0.04954 -0.117248,0.516933 -0.15047,1.038657 l -0.0604,0.948589 -2.010254,0.04091 -2.010253,0.0409 -0.107861,3.243472 c -0.05932,1.78391 -0.147534,3.658121 -0.196023,4.164914 l -0.08816,0.921441 -3.932032,-0.0046 -3.932033,-0.0046 -0.258004,-0.354818 z m 16.46543,0.03236 c -0.05694,-0.182445 -0.149369,-0.36489 -0.205406,-0.405434 -0.05604,-0.04054 -0.280119,-0.33909 -0.497963,-0.663437 l -0.396078,-0.589723 9.031949,-0.07371 9.031949,-0.07371 0.0799,-2.137744 c 0.04394,-1.175758 0.101559,-2.071399 0.128031,-1.990312 0.02647,0.08109 0.04028,0.197188 0.03067,0.258003 -0.0096,0.06081 0.04888,0.110573 0.129972,0.110573 0.08109,0 0.147431,0.132688 0.147431,0.294861 0,0.162174 0.04976,0.295282 0.110573,0.295793 0.06081,4.42e-4 0.226674,0.204921 0.368576,0.45424 0.281529,0.494641 0.311978,1.139325 0.161289,3.414881 l -0.09519,1.437448 H 68.283914 59.322822 Z M 78.631643,41.03013 c -0.10334,-0.425706 -0.219869,-0.890113 -0.258953,-1.032014 -0.06715,-0.243799 0.45621,-0.258004 9.506087,-0.258004 8.597104,0 9.586307,-0.02387 9.666637,-0.233204 0.04922,-0.128262 0.08949,-0.633374 0.08949,-1.122469 v -0.889266 l 0.665366,0.09978 c 1.336491,0.200419 1.28278,0.343058 1.223742,-3.249857 -0.02852,-1.735776 -8.32e-4,-3.155955 0.06153,-3.155955 0.06236,0 0.113389,1.923969 0.113389,4.275486 v 4.275487 h -0.810868 -0.810868 v 1.032014 1.032014 h -9.62883 -9.628831 z m 22.873297,-6.26416 c -0.0203,-3.872798 -0.0766,-8.261834 -0.12513,-9.753416 -0.0796,-2.446683 -0.0652,-2.703117 0.14745,-2.621519 0.50694,0.194532 0.67799,-0.04466 0.67799,-0.948088 0,-0.658227 0.0515,-0.868809 0.21247,-0.868809 0.17406,0 0.2164,0.379856 0.23415,2.100885 0.0119,1.155487 0.0656,5.451246 0.11925,9.54613 l 0.0976,7.445244 3.80547,0.03937 3.80548,0.03937 -0.10272,0.329211 c -0.0565,0.181065 -0.14821,0.362382 -0.2038,0.402926 -0.0556,0.04054 -0.20509,0.33909 -0.33224,0.663437 l -0.23117,0.589723 -4.03395,0.0385 -4.03395,0.0385 z m 13.31964,3.907572 c -0.0518,-1.72436 -0.13282,-3.649365 -0.18003,-4.277788 l -0.0858,-1.142587 h -1.90125 -1.90126 l 8e-5,-0.995157 9e-5,-0.995156 2.87481,-0.04455 2.87482,-0.04455 5.9e-4,2.403442 c 2.9e-4,1.321892 0.0437,3.249324 0.0965,4.283181 l 0.0959,1.87974 h 3.73798 3.73798 l -0.18554,0.331719 c -0.10205,0.182445 -0.21871,0.365305 -0.25926,0.406352 -0.0405,0.04105 -0.21609,0.339596 -0.39011,0.663438 l -0.31639,0.588804 -4.05242,0.03916 -4.05242,0.03916 -0.0942,-3.135202 z m 9.88339,1.619435 c -0.0764,-1.398931 -0.44676,-11.111355 -0.60086,-15.757467 l -0.0667,-2.009564 0.58199,-0.09306 0.58198,-0.09306 v -0.926423 -0.926424 l 0.54836,-0.03693 c 0.3016,-0.02031 0.59914,-0.116802 0.66118,-0.214421 0.062,-0.09762 0.11384,0.577944 0.11508,1.501251 0.001,0.923309 0.0668,2.250185 0.14569,2.948612 0.0789,0.698429 0.21396,3.956792 0.30017,7.240808 0.0862,3.284016 0.19688,6.387591 0.24595,6.896833 l 0.0892,0.925895 3.7018,-0.0138 c 2.036,-0.0076 3.72212,0.0276 3.74695,0.07821 0.0248,0.0506 -0.41628,0.519216 -0.98024,1.041361 l -1.02539,0.949351 h -3.98135 -3.98135 z m 13.56786,0.221146 c -0.0507,-0.70951 -0.13398,-2.583721 -0.18502,-4.164914 -0.0779,-2.412218 -0.13168,-2.905966 -0.33437,-3.067951 -0.16857,-0.134712 -0.62824,-0.179267 -1.52103,-0.14743 l -1.27946,0.04562 -0.0474,-1.008069 c -0.0261,-0.554436 -0.0198,-1.035428 0.014,-1.068871 0.0338,-0.03344 1.337,-0.0608 2.89605,-0.0608 h 2.83463 l 0.0975,2.469462 c 0.0537,1.358204 0.14364,3.298759 0.19998,4.312345 l 0.10244,1.842882 3.8332,0.07747 c 2.10826,0.04261 3.76685,0.09296 3.68576,0.111882 -0.0811,0.01893 -0.54549,0.370062 -1.03201,0.7803 -0.48652,0.410238 -1.00144,0.840883 -1.14427,0.956989 -0.21069,0.171266 -0.9926,0.2111 -4.14377,0.2111 H 138.368 Z m 12.20818,0.184288 -0.10361,-1.10573 h -0.71983 -0.71983 l -0.005,-1.584878 c -0.003,-0.871683 -0.0655,-2.447348 -0.13932,-3.501476 -0.16893,-2.414088 -0.25133,-3.810246 -0.44809,-7.592675 -0.0865,-1.66228 -0.1778,-3.337459 -0.20295,-3.722622 -0.0251,-0.385162 0.0109,-0.700295 0.08,-0.700295 0.0692,0 0.12579,-0.464406 0.12579,-1.032014 v -1.032014 h 0.5824 c 0.32032,0 0.63735,-0.08293 0.70454,-0.184288 0.0672,-0.101359 0.66758,-0.713482 1.3342,-1.360274 l 1.21206,-1.175986 v 0.991697 0.991698 h -0.9583 -0.9583 l -0.002,0.479149 c -0.001,0.263533 0.0644,1.407962 0.14549,2.543178 0.0811,1.135215 0.25082,3.855309 0.37714,6.044653 0.12632,2.189344 0.25824,4.345516 0.29316,4.791494 0.0349,0.445977 0.10806,1.452965 0.16249,2.237751 0.0544,0.784787 0.14075,1.494501 0.19183,1.577145 0.0511,0.08264 0.50535,0.170328 1.00949,0.194853 l 0.91662,0.04459 0.001,0.608151 c 0,0.334483 0.0424,0.815475 0.093,1.068871 l 0.0921,0.460721 h 8.76239 c 5.80406,0 8.73164,0.04978 8.67128,0.147431 -0.0501,0.08109 -0.59424,0.14743 -1.20915,0.14743 h -1.11803 l 0.0924,0.884584 0.0925,0.884583 h -9.12585 -9.12586 l -0.10362,-1.105729 z m 21.16104,-2.653751 v -0.516007 l 0.70029,0.0049 0.7003,0.0049 -0.36858,0.282356 c -0.20272,0.155295 -0.48468,0.385291 -0.62658,0.511102 -0.36446,0.323139 -0.40543,0.294114 -0.40543,-0.287261 z m -9.63769,-3.099627 c -0.051,-0.132922 -0.0927,-0.534797 -0.0927,-0.893056 v -0.65138 h 1.53083 c 1.70021,0 1.70585,0.0038 1.71062,1.142587 l 0.002,0.47915 h -1.31482 c -0.72315,0 -1.4112,0.03698 -1.529,0.08219 -0.12023,0.04614 -0.25485,-0.02382 -0.30692,-0.159489 z M 71.022762,33.806036 c 0.04098,-0.668966 0.115426,-3.588091 0.165433,-6.486945 l 0.09092,-5.270643 h 2.545716 2.545718 l 0.100104,-0.934766 c 0.05506,-0.514121 0.103191,-1.393176 0.106961,-1.953455 0.0067,-0.996986 0.01081,-1.007695 0.192522,-0.502682 0.102116,0.283804 0.157314,0.565765 0.122659,0.62658 -0.03465,0.06082 0.0073,0.110573 0.09313,0.110573 0.08587,0 0.156132,0.136603 0.156132,0.303562 0,0.16696 0.0588,0.267221 0.130669,0.222803 0.227655,-0.140697 0.307537,0.522176 0.309669,2.569677 l 0.0021,1.990313 -2.100945,-0.0341 c -1.155519,-0.01876 -2.316561,8.85e-4 -2.580094,0.04354 l -0.479149,0.07764 -5.9e-4,3.347364 c -2.95e-4,1.841051 -0.04374,4.193248 -0.09647,5.227105 l -0.09587,1.87974 H 71.58983 70.948285 l 0.07451,-1.216303 z m 20.420057,0.273778 c 0,-0.589019 -0.06044,-0.818289 -0.233204,-0.884584 -0.128261,-0.04922 -2.522742,-0.08949 -5.321065,-0.08949 h -5.087862 l 0.05042,-0.921441 0.05042,-0.921441 -1.049054,-0.04292 -1.049053,-0.04292 -0.104416,-0.767952 c -0.05743,-0.422372 -0.125634,-0.906157 -0.151567,-1.075076 -0.04236,-0.275931 0.03361,-0.310391 0.748036,-0.339293 l 0.795186,-0.03217 v 0.957176 c 0,0.526445 0.05671,0.992221 0.126021,1.035058 0.06931,0.04284 2.656717,0.08494 5.749792,0.09355 l 5.623771,0.01567 v 1.905465 c 0,1.048004 -0.03317,1.905463 -0.07371,1.905463 -0.04054,0 -0.07372,-0.357793 -0.07372,-0.795094 z m -53.271816,-1.721086 -0.86025,-1.022154 h 2.002837 2.002837 v 1.032014 1.032014 l -1.142587,-0.0099 -1.142587,-0.0099 -0.86025,-1.022154 z M 161.26707,27.319091 c -0.0531,-0.83114 -0.1348,-1.826296 -0.1816,-2.211458 l -0.0851,-0.700296 h -1.23831 -1.23831 l -0.0165,-0.700295 c -0.009,-0.385162 -0.0414,-0.915912 -0.0719,-1.179444 l -0.0554,-0.47915 h 2.85415 2.85417 l 0.0986,1.806025 c 0.0543,0.993313 0.13439,1.98847 0.1781,2.211458 l 0.0795,0.405434 3.85834,0.0049 c 4.26321,0.0054 4.00885,-0.07031 2.81388,0.837748 -0.87337,0.663677 -1.29895,1.00663 -1.56135,1.258233 -0.24264,0.232639 -0.65852,0.258003 -4.23039,0.258003 h -3.9613 l -0.0965,-1.511163 z M 18.957401,25.77107 c 0.04868,-0.466249 0.132682,-1.494577 0.186674,-2.285174 l 0.09817,-1.437448 h 2.919579 2.919578 l -0.04807,0.405434 c -0.02644,0.222989 -0.05564,0.784285 -0.06488,1.247325 l -0.01681,0.841892 -1.363732,-0.03102 -1.363733,-0.03102 -0.04665,0.405434 c -0.02566,0.222989 -0.09248,0.405434 -0.148494,0.405434 -0.05601,0 -0.0781,0.298547 -0.04908,0.663437 l 0.05276,0.663438 h -1.581909 -1.58191 z m 23.946075,0.763894 c -0.04611,-0.04611 -0.05899,-0.261723 -0.02864,-0.479149 0.0949,-0.679725 0.35752,-5.940056 0.357862,-7.168066 2.94e-4,-1.152186 0.0046,-1.165766 0.27715,-0.87325 0.152254,0.163425 0.322891,0.442274 0.379191,0.619664 0.0563,0.177388 0.154776,0.290134 0.218832,0.250546 0.06405,-0.03959 0.396757,0.22707 0.739337,0.592577 l 0.622872,0.664555 -0.16023,3.037185 c -0.08813,1.670451 -0.160229,3.127766 -0.160229,3.238477 0,0.151805 -0.265807,0.201293 -1.081157,0.201293 -0.594638,0 -1.118882,-0.03772 -1.164989,-0.08383 z m 43.416131,-0.173346 c -0.135917,-0.04591 -0.184288,-0.614725 -0.184288,-2.167154 v -2.104899 l 6.597518,0.0163 6.597518,0.0163 0.04359,-0.995157 c 0.02627,-0.599641 0.10811,-0.995156 0.205923,-0.995156 0.112312,0 0.132949,0.347535 0.06698,1.127973 -0.05244,0.620385 -0.09534,1.598956 -0.09533,2.174601 l 2.3e-5,1.046628 H 93.10143 86.651321 l -0.07371,0.971411 c -0.05223,0.688288 -0.127427,0.953265 -0.258004,0.909154 z M 114.44199,25.52884 c 0,-0.752636 -0.0507,-0.961984 -0.25169,-1.039108 -0.13843,-0.05312 -1.03408,-0.05082 -1.99032,0.0051 l -1.73862,0.101692 V 23.322455 22.04837 l 2.8749,0.02814 2.87489,0.02814 v 1.722638 c 0,0.94745 0.0415,1.929962 0.0921,2.183358 l 0.0921,0.46072 h -0.97672 -0.97673 z m 22.96904,-0.05263 -0.0436,-0.995156 -1.43745,-0.0422 -1.43745,-0.0422 3e-4,-1.137249 2.9e-4,-1.137248 2.78157,-0.0102 2.78156,-0.0102 0.0902,1.042218 c 0.0496,0.573219 0.1342,1.55638 0.18798,2.184803 l 0.0978,1.142587 h -1.48885 -1.48885 l -0.0436,-0.995156 z M 59.442776,23.863835 c -0.175104,-0.390311 -0.419569,-0.927647 -0.543256,-1.194079 -0.234088,-0.504242 -0.156747,-0.798171 0.133618,-0.507807 0.09676,0.09676 0.267038,0.118232 0.402977,0.05082 0.12948,-0.0642 1.114472,-0.128325 2.188873,-0.142492 l 1.953454,-0.02576 v 0.571106 c 0,0.31411 -0.04044,0.866183 -0.08988,1.226831 l -0.08988,0.655724 -1.818771,0.03765 -1.818771,0.03765 z m -27.976694,-4.294887 -0.488503,-0.0469 0.101528,-0.837687 c 0.05584,-0.460728 0.113521,-0.85246 0.128182,-0.870514 0.01465,-0.01805 0.439073,0.383293 0.943142,0.891883 l 0.916489,0.924708 -0.556167,-0.0073 c -0.305892,-0.004 -0.775993,-0.0284 -1.044671,-0.05419 z m 72.666978,-0.137392 c 0.006,-0.141902 0.10064,-0.490207 0.20993,-0.774011 l 0.19872,-0.516007 0.0112,0.774011 c 0.009,0.594707 -0.04,0.77401 -0.20993,0.77401 -0.12163,0 -0.2161,-0.116101 -0.20993,-0.258003 z m 22.9358,0.07371 c 0.14067,-0.23006 0.34945,-0.495091 0.66645,-0.846007 0.13514,-0.149605 0.20702,-0.310708 0.15972,-0.35801 -0.0473,-0.0473 0.0182,-0.086 0.14548,-0.086 0.1727,0 0.24447,0.187255 0.28258,0.737245 l 0.0511,0.737244 -0.709,-9.1e-5 c -0.52899,-6.8e-5 -0.68039,-0.04688 -0.59632,-0.18438 z"
         id="path304"
         sodipodi:nodetypes="cccccccccccccssscsssscccccscscccssscccccssscscccccccccccssscccsccsssssssssscccccssssssccccccssssssssscssscccccccccsssscsccccccccccccccccccccccccccsssssscccccccssscccccssscccscscssssssscssssccccssscccccccccsscsccccssscccssscssscscsssscsscccccssssscsccccssscccscsscscsscsscsscscsssssscssssscccsscccccssscccssssscsscccsssssscsssscccccccsssssssccccssscccsccccccccccccccscsccccccccccccsccssscsssccccscssccssccscssssscsccccccscsscsssccccccssssssccccssscccccccccccssscsscsscsssscscccsssssssccscccscccccssscccccssscssscsssscccccccccccscccccccccscsssscccsscccsscccssscccssccsssscssssssscccsssscccssscsscccccscccccccccccccsscccccssssscsscccsscsssccsssccsssssssscsss" /></g></g></svg>
