<?xml version="1.0" encoding="UTF-8" standalone="no"?>
<!-- Created with Inkscape (http://www.inkscape.org/) -->

<svg
   width="120"
   height="120"
   viewBox="0 0 120 120"
   version="1.1"
   id="svg5"
   xml:space="preserve"
   inkscape:version="1.2.2 (b0a8486541, 2022-12-01)"
   sodipodi:docname="dibujo.svg"
   xmlns:inkscape="http://www.inkscape.org/namespaces/inkscape"
   xmlns:sodipodi="http://sodipodi.sourceforge.net/DTD/sodipodi-0.dtd"
   xmlns="http://www.w3.org/2000/svg"
   xmlns:svg="http://www.w3.org/2000/svg"><sodipodi:namedview
     id="namedview7"
     pagecolor="#ffffff"
     bordercolor="#000000"
     borderopacity="0.25"
     inkscape:showpageshadow="2"
     inkscape:pageopacity="0.0"
     inkscape:pagecheckerboard="0"
     inkscape:deskcolor="#d1d1d1"
     inkscape:document-units="px"
     showgrid="false"
     inkscape:zoom="3.1407326"
     inkscape:cx="14.327867"
     inkscape:cy="63.838608"
     inkscape:window-width="1368"
     inkscape:window-height="699"
     inkscape:window-x="0"
     inkscape:window-y="0"
     inkscape:window-maximized="1"
     inkscape:current-layer="layer1" /><defs
     id="defs2" /><g
     inkscape:label="Capa 1"
     inkscape:groupmode="layer"
     id="layer1"><path
       style="fill:#ffffff;stroke-width:0.431344"
       d="M 72.967974,96.182711 C 69.391877,95.836264 67.491672,95.135515 65.403056,93.392958 64.320642,92.489883 63.799125,92.418893 57.855958,92.3656 42.355285,92.226608 26.941943,89.256765 17.760967,84.640093 14.112531,82.80547 9.3756017,79.449043 8.3319337,77.958999 c -0.882775,-1.260341 -0.809449,-4.097455 0.152777,-5.911183 0.948375,-1.787624 4.3134683,-4.465827 6.8241623,-5.431201 1.578533,-0.606953 1.883929,-0.953037 2.498191,-2.831037 0.690266,-2.110369 0.68427,-2.171318 -0.439646,-4.468518 -2.402878,-4.911307 -1.250011,-9.520752 3.490304,-13.955083 4.064644,-3.802275 8.412487,-5.226899 15.952104,-5.226899 3.299739,0 4.385999,-0.180727 6.303452,-1.048742 3.007804,-1.361608 5.067638,-1.713546 6.964194,-1.189882 l 1.532027,0.423014 2.825421,-3.783592 c 4.236467,-5.673164 8.528997,-8.966762 13.326467,-10.225211 1.955783,-0.513033 4.739765,-0.715275 10.235055,-0.743527 7.424296,-0.03817 7.611131,-0.01641 11.352861,1.32204 5.297161,1.894848 10.325322,5.013272 12.635617,7.836499 2.32539,2.841673 6.32327,9.910506 7.23991,12.801203 1.52953,4.823448 1.66277,17.003716 0.24368,22.273861 -0.42776,1.588589 -0.39128,1.670104 1.54748,3.457184 2.55196,2.352315 3.21336,3.681276 3.21336,6.456614 0,2.088624 -0.13362,2.379769 -1.84095,4.011354 -1.01252,0.9676 -3.0473,2.399727 -4.52174,3.182505 -2.63181,1.397231 -9.488915,3.968568 -10.583145,3.968568 -0.30601,0 -1.603577,0.983158 -2.883479,2.184792 -5.505115,5.168479 -9.958329,6.232516 -21.432062,5.120953 z M 83.79306,86.086506 c 13.619235,-3.677576 21.66479,-13.153736 23.05989,-27.16026 0.36336,-3.648063 0.0279,-10.672998 -0.64216,-13.44672 -1.72494,-7.140673 -9.715103,-13.957978 -20.717855,-17.676742 -3.212966,-1.085933 -3.705276,-1.1344 -9.007531,-0.886751 -5.592157,0.261186 -8.962684,0.955377 -11.86063,2.442801 -2.519408,1.293133 -6.176215,5.244082 -7.913371,8.549898 -0.895976,1.705042 -1.908797,3.089035 -2.260593,3.089035 -0.35054,0 -1.334186,-0.291157 -2.185874,-0.647016 -3.062297,-1.27951 -6.715675,-0.555333 -8.721083,1.728702 -2.082536,2.371877 -2.42528,4.181187 -1.858021,9.808308 0.26913,2.669737 0.61777,6.503958 0.774753,8.520492 0.156986,2.016534 0.501105,3.809031 0.764713,3.98333 0.263606,0.174296 2.151525,0.319876 4.195375,0.323507 4.619838,0.0082 5.687109,-0.643722 6.385575,-3.900564 1.042926,-4.862985 -0.03671,-12.843516 -2.136055,-15.789505 -0.703876,-0.98774 -1.279776,-1.909738 -1.279776,-2.048885 0,-0.54192 0.852331,-0.206012 2.063762,0.81334 0.696996,0.586483 1.360097,0.973502 1.473553,0.860043 0.113461,-0.113459 0.56233,0.187132 0.997492,0.667979 1.033333,1.141819 1.910716,5.423038 1.943486,9.483282 0.01436,1.779294 0.274779,4.652383 0.578709,6.38464 0.518329,2.954237 0.364576,3.908611 -0.53966,3.349762 -0.211284,-0.130581 -0.713089,0.264581 -1.11511,0.878147 -0.695064,1.0608 -0.689266,1.161213 0.118033,2.04518 2.173974,2.380428 3.341718,7.671148 2.332269,10.566861 -0.429063,1.23081 -0.337656,1.414239 1.614909,3.240637 2.50664,2.344666 6.572192,4.463449 10.120295,5.274239 3.25488,0.743788 10.228278,0.514749 13.814905,-0.45374 z m -7.953339,-1.866784 c 0,-1.4682 6.259209,-6.557704 8.064842,-6.557704 1.288515,0 1.254991,0.467909 -0.125958,1.758025 -0.61564,0.575142 -1.414765,1.628027 -1.775834,2.339744 -1.245675,2.45541 -2.281324,3.235082 -4.297189,3.235082 -1.508057,0 -1.865861,-0.148646 -1.865861,-0.775147 z M 74.92522,79.661609 c -0.706477,-1.550556 0.05464,-9.548113 0.908691,-9.548113 0.979975,0 1.755109,2.059056 2.035879,5.408089 0.231456,2.760792 0.165525,3.121811 -0.747631,4.093823 -1.246015,1.326323 -1.610186,1.333979 -2.196939,0.0462 z M 59.695019,74.150579 C 59.588274,73.828098 59.386349,70.555624 59.2463,66.878415 59.106252,63.201207 58.905862,59.513214 58.80099,58.682877 57.656008,49.617065 57.607784,48.310481 58.386429,47.450091 c 0.600469,-0.663513 1.328872,-0.844334 3.393625,-0.842445 4.501064,0.0041 5.359693,0.446922 8.877451,4.578178 l 3.167503,3.719918 0.194553,5.26427 c 0.230709,6.242362 -0.06677,7.080947 -3.47377,9.792522 -3.822623,3.042365 -10.390855,5.577487 -10.850772,4.188045 z m 4.017927,-3.350569 c 0.489766,-0.310166 0.55954,-2.005526 0.385864,-9.375131 -0.181531,-7.703067 -0.329504,-9.227521 -1.029222,-10.60342 -0.573628,-1.12796 -1.106488,-1.610092 -1.787732,-1.61754 -1.237103,-0.01353 -1.247516,0.735859 -0.13605,9.794793 0.458964,3.740738 0.963282,8.014498 1.120714,9.497244 0.293504,2.764329 0.414729,2.957428 1.446426,2.304054 z M 75.438377,43.833435 c -0.54069,-0.575536 -0.874705,-1.221767 -0.742261,-1.436068 0.132444,-0.214301 -0.04132,-1.327096 -0.386153,-2.472878 -0.344829,-1.145781 -0.626962,-3.126221 -0.626962,-4.400978 0,-1.998067 0.131642,-2.366435 0.954434,-2.670808 2.06962,-0.765601 2.327788,-0.314234 2.764938,4.834055 0.270138,3.181425 0.261903,5.22408 -0.0242,6.00691 -0.530117,1.450433 -0.697172,1.462469 -1.939784,0.139767 z m 7.465527,-6.218166 c -2.384064,-1.727009 -6.686338,-6.58682 -6.535722,-7.382695 0.06931,-0.366228 0.667303,-0.72773 1.329955,-0.80399 0.936349,-0.107758 1.534873,0.22264 2.692213,1.486161 0.818506,0.893597 1.488189,1.987762 1.488189,2.431477 0,1.128672 0.743568,2.455867 2.293094,4.092955 1.636334,1.728799 0.998101,1.817451 -1.267729,0.176092 z m -35.95207,46.193403 c 2.258573,-1.153008 2.339965,-1.258606 2.909035,-3.774261 0.707448,-3.127379 0.523763,-8.588449 -0.346848,-10.311963 -0.602906,-1.193551 -0.77826,-1.256704 -3.652718,-1.315479 -1.660675,-0.03395 -3.537248,-0.21471 -4.170163,-0.401671 -1.680925,-0.496539 -1.925969,0.322222 -2.252264,7.525415 l -0.284469,6.279904 1.592126,1.592127 c 1.939865,1.939862 3.057352,2.012966 6.205301,0.405928 z M 35.925788,78.201199 c 0.15487,-2.313083 0.318563,-4.593815 0.363763,-5.068294 0.0452,-0.474478 -0.111923,-0.857983 -0.349163,-0.852228 -0.237239,0.0057 -2.0488,0.166076 -4.02569,0.356273 l -3.594347,0.345808 -0.817457,1.800453 c -2.145441,4.725331 0.0046,7.481284 5.917011,7.58469 l 2.224302,0.0389 0.281581,-4.205605 z m 18.331439,-4.015327 c 0.0096,-1.783345 -0.210845,-3.138386 -0.596462,-3.665748 -0.336461,-0.460136 -0.701154,-0.739867 -0.810423,-0.621622 -0.109272,0.118248 -0.09789,2.231562 0.02528,4.696254 0.200622,4.014188 0.283496,4.373851 0.79514,3.450753 0.314144,-0.566778 0.578052,-2.303615 0.586455,-3.859637 z M 21.553852,68.543257 c -0.295498,-1.026841 -0.428369,-1.176612 -0.455934,-0.513925 -0.04364,1.049106 0.399148,2.436913 0.685991,2.150069 0.102835,-0.102835 -6.9e-4,-0.839102 -0.230057,-1.636144 z m 13.685602,0.222289 c 0.963365,-0.192673 1.34795,-0.512502 1.34795,-1.120973 0,-0.468259 0.599964,-1.411833 1.333252,-2.096829 l 1.333252,-1.245441 -0.275467,-3.780237 C 38.826934,58.442934 38.593562,55.98696 38.459836,55.064345 l -0.243137,-1.677484 -3.717874,0.285779 c -6.724801,0.516909 -8.604087,1.510555 -9.586053,5.068488 -0.631041,2.286436 -0.02216,7.55332 1.06502,9.212572 0.662741,1.011467 0.941662,1.081435 4.311149,1.081435 1.98141,0 4.20914,-0.121315 4.950513,-0.269589 z M 22.061163,54.071023 c 0.801705,-0.812014 8.935161,-2.289653 12.603072,-2.289653 h 3.33312 l -0.216733,-3.029118 c -0.119203,-1.666014 -0.04823,-3.133256 0.157714,-3.260538 1.109561,-0.685745 -0.02264,-1.043194 -3.30428,-1.043194 -3.204485,0 -3.999096,0.161722 -6.163861,1.254492 -5.361026,2.706237 -8.702222,7.021756 -8.029975,10.371586 l 0.307026,1.529918 0.40318,-1.509705 c 0.221749,-0.830337 0.63158,-1.741042 0.910737,-2.023788 z"
       id="path1582" /></g></svg>
